<svg width="126" height="52" viewBox="0 0 126 52" fill="none" xmlns="http://www.w3.org/2000/svg">
<path d="M46.723 16.4067L48.8196 4.57099H55.5491L55.2109 6.56616H50.8655L50.3752 9.37292H54.0443L53.7061 11.3681H50.0201L49.124 16.4067H46.723ZM55.656 16.4067L57.7526 4.57099H61.0497C63.3999 4.57099 64.8709 5.75456 64.8709 7.85118C64.8709 9.38983 63.9241 10.7256 62.3347 11.3174L65.0907 16.4067H62.4362L60.1197 11.6217H58.9023L58.0569 16.4067H55.656ZM60.8806 6.56616H59.7985L59.2574 9.62654H60.5086C61.6246 9.62654 62.3347 8.93331 62.3347 7.93572C62.3347 7.0565 61.8106 6.56616 60.8806 6.56616ZM65.7272 16.4067L72.1523 4.57099H75.2972L77.5291 16.4067H75.0436L74.5025 13.3294H69.9711L68.348 16.4067H65.7272ZM71.0702 11.2835H74.1475L73.3697 6.92123L71.0702 11.2835ZM79.4166 16.4067L81.5132 4.57099H84.5567L88.0567 13.2449L89.5954 4.57099H91.9963L89.8997 16.4067H86.8393L83.3562 7.74973L81.8176 16.4067H79.4166ZM99.8985 4.23282C102.266 4.23282 103.872 5.4164 104.768 6.8536L102.705 8.22316C102.147 7.2594 101.116 6.49853 99.814 6.49853C97.3961 6.49853 95.7053 8.45988 95.7053 11.0468C95.7053 12.9575 96.8043 14.4961 98.8502 14.4961C100.118 14.4961 101.133 13.8705 101.928 13.0082L103.618 14.5468C102.519 15.9333 100.643 16.7449 98.6981 16.7449C95.4686 16.7449 93.2029 14.6145 93.2029 11.2497C93.2029 7.4792 95.9082 4.23282 99.8985 4.23282ZM105.357 16.4067L107.453 4.57099H114.183L113.845 6.56616H109.499L109.009 9.37292H112.678L112.34 11.3681H108.654L108.113 14.4116H112.441L112.103 16.4067H105.357ZM51.4156 33.4067L53.5122 21.571H55.1016L53.0049 33.4067H51.4156ZM56.6168 33.4067L58.7134 21.571H60.7424L65.4429 31.5299L67.2014 21.571H68.7907L66.6941 33.4067H64.6482L59.9647 23.4816L58.2062 33.4067H56.6168ZM70.3052 33.4067L72.4018 21.571H78.5902L78.3535 22.9236H73.7545L73.0782 26.7111H77.0347L76.798 28.0468H72.8414L71.8946 33.4067H70.3052ZM85.521 21.2328C88.7843 21.2328 91.05 23.5323 91.05 26.728C91.05 30.4647 88.3109 33.7449 84.3036 33.7449C81.0573 33.7449 78.7916 31.4454 78.7916 28.2497C78.7916 24.513 81.5138 21.2328 85.521 21.2328ZM84.3374 32.257C87.2964 32.257 89.393 29.8053 89.393 26.8294C89.393 24.5807 87.8882 22.7207 85.4872 22.7207C82.5283 22.7207 80.4486 25.1724 80.4486 28.1483C80.4486 30.3971 81.9365 32.257 84.3374 32.257ZM61.8907 37.5565H60.369L62.6178 35.2739H64.3932L61.8907 37.5565ZM55.9729 50.4067L58.0695 38.571H64.2579L64.0212 39.9236H59.4221L58.7458 43.7111H62.7023L62.4656 45.0468H58.5091L57.7989 49.0541H62.4149L62.1782 50.4067H55.9729ZM65.2195 50.4067L67.3162 38.571H69.3451L74.0456 48.5299L75.8041 38.571H77.3935L75.2968 50.4067H73.2509L68.5674 40.4816L66.8089 50.4067H65.2195ZM78.9079 50.4067L81.0045 38.571H87.193L86.9562 39.9236H82.3572L81.6809 43.7111H85.6374L85.4007 45.0468H81.4442L80.734 49.0541H85.35L85.1132 50.4067H78.9079ZM88.1546 50.4067L90.2512 38.571H93.0073C95.2053 38.571 96.558 39.6531 96.558 41.6145C96.558 43.2038 95.5773 44.4889 93.9541 44.9961L96.7778 50.4067H95.0024L92.4662 45.2159H90.657L89.744 50.4067H88.1546ZM92.9227 39.9236H91.6039L90.9106 43.8633H92.3647C93.9372 43.8633 94.8841 42.984 94.8841 41.6652C94.8841 40.5154 94.1739 39.9236 92.9227 39.9236ZM103.77 50.7449C100.54 50.7449 98.3252 48.4454 98.3252 45.2497C98.3252 41.513 101.081 38.2328 105.122 38.2328C107.422 38.2328 109.011 39.3488 109.873 40.786L108.487 41.6821C107.878 40.5493 106.627 39.7377 105.038 39.7377C102.079 39.7377 99.9822 42.1724 99.9822 45.1483C99.9822 47.3971 101.453 49.257 103.837 49.257C105.291 49.257 106.509 48.699 107.422 47.9043L107.929 45.0637H104.615L104.852 43.6942H109.755L108.893 48.5807C107.692 49.8319 105.9 50.7449 103.77 50.7449ZM111.618 50.4067L113.715 38.571H115.304L113.207 50.4067H111.618ZM116.819 50.4067L118.916 38.571H125.104L124.868 39.9236H120.269L119.592 43.7111H123.549L123.312 45.0468H119.356L118.645 49.0541H123.261L123.025 50.4067H116.819Z" fill="#013565"/>
<path d="M41.566 15.9058H1.52588e-05V3.92911H43.6796L41.566 15.9058Z" fill="#004AAD"/>
<path d="M46.4976 32.814H0V20.8373H48.6111L46.4976 32.814Z" fill="white"/>
<path d="M50.7246 49.7222H-1.14441e-05V37.7455H52.8382L50.7246 49.7222Z" fill="#FF2F30"/>
</svg>
